PathFileType	4	(X/Y/Z)	/Users/itak/Documents/Research/Walk-IL/dataset/trc/00139_00007.trc
DataRate	CameraRate	NumFrames	NumMarkers	Units	OrigDataRate	OrigDataStartFrame	OrigNumFrames
100.000000	100.000000	4	53	mm	100.000000	68	547
Frame#	Time	RPSI			LPSI			L3			STRN			T10			C7			CLAV			RBAK			LBAK			LSHO			LUPA			LAEL			LAOL			LWTS			LWPS			LFRA			LIFD			LHPS			LHTS			RSHO			RUPA			RAEL			RAOL			RWTS			RWPS			RFRA			RIFD			RHTS			RHPS			RBHD			LFHD			RFHD			LBHD			LHIP			RHIP			RASI			LASI			LKNE			LTHI			LANK			LTIP			LTOE			LMT1			LMT5			LHEE			RKNE			RTHI			RANK			RTIP			RTOE			RMT1			RMT5			RHEE			
		X1	Y1	Z1	X2	Y2	Z2	X3	Y3	Z3	X4	Y4	Z4	X5	Y5	Z5	X6	Y6	Z6	X7	Y7	Z7	X8	Y8	Z8	X9	Y9	Z9	X10	Y10	Z10	X11	Y11	Z11	X12	Y12	Z12	X13	Y13	Z13	X14	Y14	Z14	X15	Y15	Z15	X16	Y16	Z16	X17	Y17	Z17	X18	Y18	Z18	X19	Y19	Z19	X20	Y20	Z20	X21	Y21	Z21	X22	Y22	Z22	X23	Y23	Z23	X24	Y24	Z24	X25	Y25	Z25	X26	Y26	Z26	X27	Y27	Z27	X28	Y28	Z28	X29	Y29	Z29	X30	Y30	Z30	X31	Y31	Z31	X32	Y32	Z32	X33	Y33	Z33	X34	Y34	Z34	X35	Y35	Z35	X36	Y36	Z36	X37	Y37	Z37	X38	Y38	Z38	X39	Y39	Z39	X40	Y40	Z40	X41	Y41	Z41	X42	Y42	Z42	X43	Y43	Z43	X44	Y44	Z44	X45	Y45	Z45	X46	Y46	Z46	X47	Y47	Z47	X48	Y48	Z48	X49	Y49	Z49	X50	Y50	Z50	X51	Y51	Z51	X52	Y52	Z52	X53	Y53	Z53	

69	0.68	-743.9490966796875	1130.014038085938	1239.268432617188	-756.1881713867188	1132.237182617188	1105.252319335938	-757.6063842773438	1161.213134765625	1170.799560546875	-549.6600341796875	1366.03515625	1155.66162109375	-801.8551025390625	1311.291381835938	1176.0595703125	-775.790283203125	1605.091186523438	1166.369018554688	-590.952392578125	1499.2666015625	1156.383544921875	-818.8030395507812	1418.593139648438	1253.387817382812	-790.3047485351562	1586.141479492188	1064.210815429688	-708.9404907226562	1573.417846679688	988.6426391601562	-731.7246704101562	1441.632568359375	918.8878173828125	-713.880126953125	1223.11572265625	893.3635864257812	-772.1843872070312	1207.857788085938	959.3172607421875	-587.4967651367188	974.3195190429688	920.261962890625	-669.5831298828125	941.8623046875	905.5174560546875	-690.0684204101562	1107.8076171875	886.7461547851562	-551.7611694335938	781.6490478515625	928.2911987304688	-635.1897583007812	869.4121704101562	900.7598266601562	-567.7096557617188	887.6472778320312	907.5731811523438	-703.6868286132812	1582.954467773438	1341.0087890625	-714.2709350585938	1508.404296875	1404.829467773438	-715.9224853515625	1213.569702148438	1420.949096679688	-731.9898681640625	1214.35986328125	1325.890625	-562.2500610351562	977.3074340820312	1385.404296875	-631.6073608398438	956.859375	1425.236450195312	-686.8531494140625	1140.407348632812	1432.59716796875	-522.4634399414062	785.3635864257812	1370.031494140625	-526.7086791992188	872.3379516601562	1388.128540039062	-588.6279907226562	859.5972900390625	1422.500610351562	-661.5386352539062	1760.985961914062	1264.966918945312	-658.140380859375	1858.115966796875	1065.795776367188	-562.1521606445312	1858.110107421875	1153.963623046875	-766.8594360351562	1765.128540039062	1181.447509765625	-670.4268188476562	1043.042114257812	988.7208251953125	-605.45458984375	1033.306640625	1342.891845703125	-529.784423828125	1107.868896484375	1285.708618164062	-561.5076293945312	1110.245239257812	1020.618103027344	-634.834716796875	540.4080810546875	1022.087463378906	-659.5148315429688	685.914794921875	992.8455810546875	-739.536865234375	38.36590957641602	1040.10595703125	-732.3561401367188	293.2942504882812	1002.062194824219	-508.6687316894531	42.23281097412109	1099.684326171875	-590.2943725585938	45.40710067749023	1133.763549804688	-614.05615234375	40.24155426025391	1017.817565917969	-809.790771484375	40.93163299560547	1101.150756835938	-624.3446044921875	541.3868408203125	1308.920654296875	-590.612548828125	820.6466064453125	1333.228271484375	-744.4886474609375	33.84766006469727	1294.31787109375	-656.5185546875	409.3566284179688	1320.44287109375	-513.2470092773438	49.17958831787109	1243.540405273438	-572.1634521484375	39.63540649414062	1200.3564453125	-612.474365234375	42.66375732421875	1317.354248046875	-803.1632080078125	34.62324523925781	1246.242919921875	
70	0.6900000000000001	-743.8250732421875	1129.987915039062	1239.177978515625	-756.168212890625	1132.220458984375	1105.170288085938	-757.5526123046875	1161.228881835938	1170.7109375	-549.62451171875	1366.010986328125	1155.551025390625	-801.851318359375	1311.329345703125	1176.012939453125	-775.6815795898438	1605.101684570312	1166.232421875	-590.856689453125	1499.258544921875	1156.299438476562	-818.7547607421875	1418.588134765625	1253.303588867188	-790.134521484375	1586.129760742188	1064.05810546875	-708.8160400390625	1573.3349609375	988.5598754882812	-731.7175903320312	1441.609008789062	918.7383422851562	-714.2291870117188	1223.10107421875	893.0031127929688	-772.568115234375	1207.705200195312	958.9422607421875	-586.2255859375	975.22900390625	920.081787109375	-668.1094360351562	942.075439453125	905.5762329101562	-689.8331298828125	1107.833618164062	886.4840087890625	-548.9382934570312	782.901611328125	928.52587890625	-633.13671875	869.8576049804688	900.915283203125	-565.7683715820312	888.69140625	907.5112915039062	-703.6229248046875	1582.970581054688	1340.908325195312	-714.2805786132812	1508.438110351562	1404.72900390625	-716.0597534179688	1213.565673828125	1420.84814453125	-732.0513305664062	1214.429565429688	1325.784301757812	-562.5692749023438	977.2432250976562	1385.350341796875	-631.915771484375	956.8036499023438	1425.1396484375	-687.031005859375	1140.4130859375	1432.495361328125	-522.808837890625	785.29638671875	1369.931762695312	-527.0662841796875	872.364013671875	1388.077880859375	-588.97607421875	859.5223388671875	1422.391967773438	-661.4577026367188	1760.980224609375	1264.861328125	-658.1298217773438	1858.113647460938	1065.683715820312	-562.108642578125	1858.122314453125	1153.807983398438	-766.8010864257812	1765.082763671875	1181.3544921875	-670.5055541992188	1043.051147460938	988.5309448242188	-605.1937255859375	1033.275390625	1342.677368164062	-529.5651245117188	1107.861450195312	1285.470581054688	-561.5685424804688	1110.266479492188	1020.42626953125	-634.880615234375	540.433837890625	1021.976806640625	-659.5729370117188	685.9191284179688	992.7578735351562	-739.5353393554688	38.36671829223633	1040.109375	-732.420654296875	293.2912292480469	1002.038269042969	-508.6615600585938	42.2230339050293	1099.67919921875	-590.2914428710938	45.41825866699219	1133.752563476562	-614.0474853515625	40.23690032958984	1017.812072753906	-809.7753295898438	40.95389938354492	1101.151733398438	-623.9764404296875	541.3530883789062	1308.821655273438	-590.4902954101562	820.6427001953125	1333.0703125	-744.5081787109375	33.84652328491211	1294.297485351562	-656.279296875	409.2997131347656	1320.325805664062	-513.2504272460938	49.18854141235352	1243.569091796875	-572.1751708984375	39.65777206420898	1200.383544921875	-612.4832763671875	42.65490341186523	1317.377075195312	-803.1688232421875	34.63121032714844	1246.213012695312	
71	0.7000000000000001	-743.701171875	1129.958374023438	1239.105590820312	-756.1665649414062	1132.20703125	1105.104736328125	-757.4996337890625	1161.238891601562	1170.643432617188	-549.583251953125	1365.98291015625	1155.41015625	-801.8291625976562	1311.36865234375	1175.994140625	-775.5670776367188	1605.115356445312	1166.125	-590.7488403320312	1499.25244140625	1156.19287109375	-818.6847534179688	1418.588134765625	1253.242797851562	-789.9924926757812	1586.124633789062	1063.939575195312	-708.7365112304688	1573.252319335938	988.4813842773438	-731.7960205078125	1441.591186523438	918.6107177734375	-714.6550903320312	1223.1025390625	892.6475830078125	-772.9967651367188	1207.534912109375	958.60986328125	-584.8192138671875	976.2800903320312	919.8851928710938	-666.4583129882812	942.353515625	905.5979614257812	-689.6087646484375	1107.886840820312	886.2221069335938	-545.747802734375	784.36181640625	928.7135009765625	-630.8152465820312	870.4113159179688	901.0385131835938	-563.5938720703125	889.9149780273438	907.4166259765625	-703.51025390625	1582.989624023438	1340.813354492188	-714.227783203125	1508.4755859375	1404.636474609375	-716.1610717773438	1213.567016601562	1420.766479492188	-732.0911865234375	1214.496337890625	1325.699340820312	-562.8834838867188	977.1724853515625	1385.295043945312	-632.2236938476562	956.7484130859375	1425.056274414062	-687.1709594726562	1140.42529296875	1432.405517578125	-523.1979370117188	785.2158813476562	1369.8486328125	-527.42578125	872.3660278320312	1388.008422851562	-589.3271484375	859.4369506835938	1422.298828125	-661.3709716796875	1760.97802734375	1264.757568359375	-658.1207275390625	1858.111694335938	1065.5693359375	-562.0617065429688	1858.142456054688	1153.638305664062	-766.7316284179688	1765.028564453125	1181.258911132812	-670.6383666992188	1043.055541992188	988.3497314453125	-604.9124755859375	1033.23828125	1342.456176757812	-529.336669921875	1107.855346679688	1285.203857421875	-561.6624145507812	1110.28759765625	1020.219604492188	-634.951171875	540.4637451171875	1021.848571777344	-659.6749267578125	685.927978515625	992.66552734375	-739.532958984375	38.36818695068359	1040.113891601562	-732.50244140625	293.2841796875	1002.016052246094	-508.6626586914062	42.21093368530273	1099.671508789062	-590.2881469726562	45.42993927001953	1133.739624023438	-614.037353515625	40.23178482055664	1017.804443359375	-809.7599487304688	40.97769165039062	1101.15576171875	-623.5621337890625	541.2998046875	1308.699829101562	-590.3234252929688	820.6297607421875	1332.880493164062	-744.5264892578125	33.84592056274414	1294.277099609375	-655.9888916015625	409.2278442382812	1320.200439453125	-513.2527465820312	49.19883728027344	1243.59423828125	-572.1871337890625	39.67801284790039	1200.408325195312	-612.493896484375	42.64566040039062	1317.398071289062	-803.1730346679688	34.64001083374023	1246.185791015625	
72	0.71	-743.578125	1129.924682617188	1239.052124023438	-756.1870727539062	1132.198120117188	1105.057983398438	-757.4488525390625	1161.24365234375	1170.597900390625	-549.5359497070312	1365.953002929688	1155.232788085938	-801.783935546875	1311.405883789062	1176.0048828125	-775.4508056640625	1605.130981445312	1166.049926757812	-590.6328125	1499.2490234375	1156.057861328125	-818.592529296875	1418.59619140625	1253.211181640625	-789.892578125	1586.125244140625	1063.863037109375	-708.7179565429688	1573.174438476562	988.4080200195312	-731.9715576171875	1441.580810546875	918.5086059570312	-715.1314697265625	1223.127075195312	892.3065185546875	-773.4368896484375	1207.352294921875	958.3338623046875	-583.2742309570312	977.4697265625	919.6687622070312	-664.6318359375	942.70361328125	905.57275390625	-689.3777465820312	1107.978637695312	885.9613647460938	-542.2186889648438	786.0217895507812	928.8223876953125	-628.2388305664062	871.0852661132812	901.1058349609375	-561.19970703125	891.3186645507812	907.2750244140625	-703.3436279296875	1583.011474609375	1340.724487304688	-714.102783203125	1508.515014648438	1404.55224609375	-716.2205810546875	1213.57666015625	1420.706909179688	-732.1115112304688	1214.562744140625	1325.632690429688	-563.1884155273438	977.093505859375	1385.237060546875	-632.531494140625	956.6951293945312	1424.985595703125	-687.2695922851562	1140.442504882812	1432.327514648438	-523.6296997070312	785.11767578125	1369.784057617188	-527.7789916992188	872.3318481445312	1387.926025390625	-589.6759643554688	859.3442993164062	1422.222045898438	-661.2784423828125	1760.979858398438	1264.654052734375	-658.1141967773438	1858.108642578125	1065.449096679688	-562.0117797851562	1858.169555664062	1153.4521484375	-766.6483764648438	1764.968994140625	1181.161376953125	-670.8216552734375	1043.057739257812	988.18115234375	-604.6194458007812	1033.196411132812	1342.229125976562	-529.1076049804688	1107.8486328125	1284.911010742188	-561.7923583984375	1110.306762695312	1019.996704101562	-635.0484008789062	540.49658203125	1021.702819824219	-659.8258056640625	685.9408569335938	992.564208984375	-739.5294799804688	38.37025451660156	1040.119506835938	-732.6033325195312	293.2723999023438	1001.994750976562	-508.6747741699219	42.19694519042969	1099.660400390625	-590.284423828125	45.44198989868164	1133.7255859375	-614.0271606445312	40.22553634643555	1017.794311523438	-809.7445678710938	41.00173950195312	1101.161987304688	-623.0913696289062	541.2256469726562	1308.548217773438	-590.110107421875	820.6055908203125	1332.660278320312	-744.5428466796875	33.84813690185547	1294.256713867188	-655.6329956054688	409.138671875	1320.06103515625	-513.2540283203125	49.20896911621094	1243.614624023438	-572.1983642578125	39.69422912597656	1200.429809570312	-612.5059204101562	42.63729095458984	1317.416137695312	-803.176025390625	34.64963531494141	1246.162841796875	
